# xmcd CD database file
#
# Track frame offsets:
#	150
#	23735
#	55229
#	77573
#	91958
#	107151
#	128005
#	143665
#	165547
#	187896
#	205091
#
# Disc length: 2947 seconds
#
# Revision: 2
# Processed by: cddbd v1.5.2PL0 Copyright (c) Steve Scherf et al.
# Submitted via: CDex 2.08
#
DISCID=830b810b
DTITLE=Jan Lindqvist - superkarma
DYEAR=2018
DGENRE=Blues
TTITLE0=Some Peoble
TTITLE1=Guess Who
TTITLE2=Tonight
TTITLE3=Darkness
TTITLE4=Toughen Up
TTITLE5=Freeze
TTITLE6=Exit
TTITLE7=Suitcase Full Of Sunshine
TTITLE8=At The Station
TTITLE9=Sleepwalking
TTITLE10=Suitcase Full Of Moonshine
EXTD=YEAR: 2018
EXTT0=
EXTT1=
EXTT2=
EXTT3=
EXTT4=
EXTT5=
EXTT6=
EXTT7=
EXTT8=
EXTT9=
EXTT10=
PLAYORDER=
